<?xml version="1.0" encoding="UTF-8" standalone="no"?>
<!-- Created with Inkscape (http://www.inkscape.org/) -->

<svg
   xmlns:dc="http://purl.org/dc/elements/1.1/"
   xmlns:cc="http://creativecommons.org/ns#"
   xmlns:rdf="http://www.w3.org/1999/02/22-rdf-syntax-ns#"
   xmlns:svg="http://www.w3.org/2000/svg"
   xmlns="http://www.w3.org/2000/svg"
   xmlns:sodipodi="http://sodipodi.sourceforge.net/DTD/sodipodi-0.dtd"
   xmlns:inkscape="http://www.inkscape.org/namespaces/inkscape"
   width="210mm"
   height="297mm"
   viewBox="0 0 210 297"
   version="1.1"
   id="svg6466"
   inkscape:version="0.92.2 (5c3e80d, 2017-08-06)"
   sodipodi:docname="laser_cut.svg">
  <defs
     id="defs6460" />
  <sodipodi:namedview
     id="base"
     pagecolor="#ffffff"
     bordercolor="#666666"
     borderopacity="1.0"
     inkscape:pageopacity="0.0"
     inkscape:pageshadow="2"
     inkscape:zoom="0.54866744"
     inkscape:cx="270.29153"
     inkscape:cy="561.78694"
     inkscape:document-units="mm"
     inkscape:current-layer="svg6466"
     showgrid="false"
     inkscape:window-width="1229"
     inkscape:window-height="745"
     inkscape:window-x="51"
     inkscape:window-y="396"
     inkscape:window-maximized="1" />
  <metadata
     id="metadata6463">
    <rdf:RDF>
      <cc:Work
         rdf:about="">
        <dc:format>image/svg+xml</dc:format>
        <dc:type
           rdf:resource="http://purl.org/dc/dcmitype/StillImage" />
        <dc:title />
      </cc:Work>
    </rdf:RDF>
  </metadata>
  <path
     style="fill:none;stroke:#000000;stroke-width:0.26458332"
     d="m 152.48181,103.51026 a 2.4927082,2.4927082 0 0 1 -2.4927,2.49271 2.4927082,2.4927082 0 0 1 -2.49271,-2.49271 2.4927082,2.4927082 0 0 1 2.49271,-2.49271 2.4927082,2.4927082 0 0 1 2.4927,2.49271 z"
     id="circle60" />
  <g
     inkscape:label="Layer 1"
     inkscape:groupmode="layer"
     id="layer1" />
  <path
     style="fill:none;stroke:#000000;stroke-width:0.26458332"
     d="M 163.86771,148.5 A 58.867706,58.867706 0 0 1 105,207.36771 58.867706,58.867706 0 0 1 46.132294,148.5 58.867706,58.867706 0 0 1 105,89.632294 58.867706,58.867706 0 0 1 163.86771,148.5 Z"
     id="path10" />
  <path
     style="fill:none;stroke:#000000;stroke-width:0.26458332"
     d="m 62.50252,103.51025 a 2.4927082,2.4927082 0 0 1 -2.492709,2.4927 2.4927082,2.4927082 0 0 1 -2.492708,-2.4927 2.4927082,2.4927082 0 0 1 2.492708,-2.49271 2.4927082,2.4927082 0 0 1 2.492709,2.49271 z"
     id="circle50" />
  <path
     style="fill:none;stroke:#000000;stroke-width:0.26458332"
     d="m 152.48207,193.48943 a 2.4927082,2.4927082 0 0 1 -2.49271,2.4927 2.4927082,2.4927082 0 0 1 -2.4927,-2.4927 2.4927082,2.4927082 0 0 1 2.4927,-2.49271 2.4927082,2.4927082 0 0 1 2.49271,2.49271 z"
     id="circle62" />
  <path
     style="fill:none;stroke:#000000;stroke-width:0.26458332"
     d="m 62.502794,193.48914 a 2.4927082,2.4927082 0 0 1 -2.492708,2.4927 2.4927082,2.4927082 0 0 1 -2.492708,-2.4927 2.4927082,2.4927082 0 0 1 2.492708,-2.49271 2.4927082,2.4927082 0 0 1 2.492708,2.49271 z"
     id="circle64" />
</svg>
